<svg width="21" height="21" viewBox="0 0 21 21" fill="none" xmlns="http://www.w3.org/2000/svg">
<g clip-path="url(#clip0_2004_49)">
<path d="M16.9395 0H4.06055C1.82109 0 0 1.82038 0 4.05896V8.34752V16.941C0 19.1796 1.82109 21 4.06055 21H16.9395C19.1789 21 21 19.1796 21 16.941V8.33932V4.05076C20.9918 1.82038 19.1707 0 16.9395 0ZM18.1043 2.41898H18.5719V2.87817V5.97774L15.0199 5.98594L15.0117 2.42718L18.1043 2.41898ZM7.49766 8.33932C8.17031 7.41273 9.26133 6.79774 10.4918 6.79774C11.7223 6.79774 12.8133 7.40453 13.4859 8.33932C13.9289 8.94612 14.1832 9.69231 14.1832 10.4959C14.1832 12.5295 12.5262 14.1941 10.4836 14.1941C8.44102 14.1941 6.80039 12.5295 6.80039 10.4959C6.80039 9.69231 7.06289 8.94612 7.49766 8.33932ZM18.9492 16.9328C18.9492 18.0398 18.0469 18.9418 16.9395 18.9418H4.06055C2.95312 18.9418 2.05078 18.0398 2.05078 16.9328V8.33932H5.18437C4.91367 9.00352 4.75781 9.73331 4.75781 10.4959C4.75781 13.6611 7.33359 16.2358 10.5 16.2358C13.6664 16.2358 16.2422 13.6611 16.2422 10.4959C16.2422 9.73331 16.0863 9.00352 15.8156 8.33932H18.9492V16.9328Z" fill="#FF6E06"/>
</g>
<defs>
<clipPath id="clip0_2004_49">
<rect width="21" height="21" fill="white"/>
</clipPath>
</defs>
</svg>
